<svg xmlns="http://www.w3.org/2000/svg" xmlns:xlink="http://www.w3.org/1999/xlink" width="500"
    zoomAndPan="magnify" viewBox="0 0 375 225" height="300" preserveAspectRatio="xMidYMid meet"
    version="1.0">
    <defs>
        <g />
        <clipPath id="4daa79b43c">
            <path
                d="M 1.398438 0 L 226.164062 0 L 226.164062 224.765625 L 1.398438 224.765625 Z M 1.398438 0 "
                clip-rule="nonzero" />
        </clipPath>
        <clipPath id="3d668b2223">
            <path
                d="M 28.59375 135 L 198.761719 135 L 198.761719 162.988281 L 28.59375 162.988281 Z M 28.59375 135 "
                clip-rule="nonzero" />
        </clipPath>
        <clipPath id="06ad786383">
            <path d="M 51 49.28125 L 177 49.28125 L 177 129 L 51 129 Z M 51 49.28125 "
                clip-rule="nonzero" />
        </clipPath>
        <clipPath id="a71411edf7">
            <path
                d="M 78.652344 59.820312 L 148.71875 59.820312 L 148.71875 117.152344 L 78.652344 117.152344 Z M 78.652344 59.820312 "
                clip-rule="nonzero" />
        </clipPath>
    </defs>
    <g clip-path="url(#4daa79b43c)">
        <path fill="#ceaf8c"
            d="M 113.78125 224.765625 C 51.695312 224.765625 1.398438 174.125 1.398438 112.382812 C 1.398438 50.640625 51.695312 0 113.78125 0 C 175.871094 0 226.164062 50.292969 226.164062 112.382812 C 226.164062 174.46875 175.523438 224.765625 113.78125 224.765625 Z M 113.78125 6.9375 C 55.507812 6.9375 8.335938 54.109375 8.335938 112.382812 C 8.335938 170.65625 55.507812 217.828125 113.78125 217.828125 C 172.054688 217.828125 219.226562 170.65625 219.226562 112.382812 C 219.226562 54.109375 171.707031 6.9375 113.78125 6.9375 Z M 113.78125 6.9375 "
            fill-opacity="1" fill-rule="nonzero" />
    </g>
    <g clip-path="url(#3d668b2223)">
        <path fill="#d7c8b4"
            d="M 138.226562 155.828125 L 89.125 155.828125 C 88.789062 155.828125 88.574219 155.472656 88.726562 155.171875 L 92.507812 147.886719 C 92.585938 147.738281 92.738281 147.644531 92.90625 147.644531 L 134.449219 147.644531 C 134.617188 147.644531 134.769531 147.738281 134.847656 147.886719 L 138.625 155.171875 C 138.78125 155.472656 138.566406 155.828125 138.226562 155.828125 Z M 197.675781 156.65625 L 177.339844 136.292969 C 176.648438 135.597656 175.707031 135.207031 174.722656 135.207031 L 52.628906 135.207031 C 51.648438 135.207031 50.707031 135.597656 50.011719 136.292969 L 29.679688 156.65625 C 28.984375 157.351562 28.59375 158.296875 28.59375 159.277344 C 28.59375 161.328125 30.253906 162.988281 32.296875 162.988281 L 195.058594 162.988281 C 197.101562 162.988281 198.761719 161.328125 198.761719 159.277344 C 198.761719 158.296875 198.371094 157.351562 197.675781 156.65625 "
            fill-opacity="1" fill-rule="nonzero" />
    </g>
    <g clip-path="url(#06ad786383)">
        <path fill="#d7c8b4"
            d="M 170.171875 49.320312 L 57.183594 49.320312 C 53.914062 49.320312 51.238281 51.996094 51.238281 55.269531 L 51.238281 122.453125 C 51.238281 125.726562 53.914062 128.40625 57.183594 128.40625 L 170.171875 128.40625 C 173.441406 128.40625 176.117188 125.726562 176.117188 122.453125 L 176.117188 55.269531 C 176.117188 51.996094 173.441406 49.320312 170.171875 49.320312 Z M 169.234375 56.207031 L 169.234375 121.515625 L 58.117188 121.515625 L 58.117188 56.207031 L 169.234375 56.207031 "
            fill-opacity="1" fill-rule="nonzero" />
    </g>
    <g clip-path="url(#a71411edf7)">
        <path fill="#af7f08"
            d="M 85.484375 66.804688 C 85.484375 65.046875 85.523438 63.398438 85.46875 61.753906 C 85.449219 60.445312 85.992188 59.820312 87.273438 60.011719 C 92.363281 60.730469 97.550781 61.109375 102.511719 62.339844 C 107.363281 63.550781 111.234375 66.617188 113.621094 71.441406 C 117.960938 63.550781 125.308594 61.429688 133.222656 60.425781 C 135.496094 60.144531 137.808594 60.164062 140.101562 60.011719 C 141.414062 59.917969 141.902344 60.503906 141.847656 61.808594 C 141.773438 63.457031 141.828125 65.101562 141.828125 66.84375 C 143.6875 67.128906 145.378906 67.429688 147.070312 67.621094 C 148.199219 67.753906 148.707031 68.226562 148.6875 69.417969 C 148.667969 82.570312 148.667969 95.726562 148.6875 108.898438 C 148.6875 110.507812 147.9375 110.601562 146.640625 110.414062 C 139.707031 109.316406 132.789062 109.203125 125.929688 111.113281 C 121.871094 112.25 118.148438 113.972656 114.824219 116.640625 C 114.351562 117.019531 113.132812 117.152344 112.71875 116.828125 C 105.386719 110.941406 96.835938 109.429688 87.816406 109.730469 C 85.390625 109.808594 82.949219 110.109375 80.542969 110.46875 C 79.210938 110.675781 78.664062 110.300781 78.683594 108.957031 C 78.703125 95.800781 78.703125 82.648438 78.683594 69.472656 C 78.683594 68.300781 79.117188 67.789062 80.28125 67.65625 C 81.953125 67.410156 83.625 67.109375 85.484375 66.804688 Z M 87.234375 101.402344 C 96.761719 101.839844 106.066406 102.578125 112.886719 111.167969 C 112.886719 109.996094 112.886719 109.316406 112.886719 108.632812 C 112.886719 98.089844 112.832031 87.550781 112.925781 77.007812 C 112.960938 73.089844 111.515625 69.929688 108.582031 67.542969 C 102.363281 62.414062 94.921875 61.847656 87.234375 61.675781 C 87.234375 75.019531 87.234375 88.058594 87.234375 101.402344 Z M 139.988281 101.402344 C 139.988281 88.023438 139.988281 74.90625 139.988281 61.789062 C 133.183594 61.355469 125.328125 63.058594 120.761719 65.992188 C 116.683594 68.621094 114.371094 72.144531 114.445312 77.292969 C 114.597656 87.625 114.484375 97.976562 114.484375 108.3125 C 114.484375 109.125 114.484375 109.921875 114.484375 111.132812 C 121.324219 102.558594 130.589844 101.859375 139.988281 101.402344 Z M 141.808594 68.546875 C 141.808594 69.664062 141.808594 70.441406 141.808594 71.214844 C 141.808594 81.039062 141.753906 90.878906 141.847656 100.703125 C 141.867188 102.632812 141.265625 103.164062 139.40625 103.164062 C 136.625 103.183594 133.804688 103.371094 131.042969 103.789062 C 126.078125 104.546875 121.363281 106.039062 117.773438 109.84375 C 116.703125 110.960938 115.949219 112.382812 115.046875 113.667969 C 125.082031 107.535156 135.777344 107.195312 146.867188 108.632812 C 146.867188 95.421875 146.867188 82.382812 146.867188 69.210938 C 145.230469 69 143.671875 68.792969 141.808594 68.546875 Z M 112.171875 113.667969 C 111.496094 112.628906 111.027344 111.320312 110.105469 110.5625 C 108.019531 108.839844 105.878906 107.082031 103.472656 105.90625 C 98.8125 103.636719 93.679688 103.277344 88.570312 103.144531 C 85.503906 103.070312 85.484375 103.050781 85.484375 99.851562 C 85.484375 90.238281 85.484375 80.621094 85.484375 71.007812 C 85.484375 70.230469 85.484375 69.472656 85.484375 68.640625 C 84.679688 68.679688 84.171875 68.679688 83.664062 68.753906 C 80.28125 69.191406 80.28125 69.191406 80.28125 72.578125 C 80.28125 83.78125 80.28125 94.988281 80.28125 106.191406 C 80.28125 106.949219 80.28125 107.707031 80.28125 108.671875 C 91.554688 107.195312 102.230469 107.554688 112.171875 113.667969 Z M 112.171875 113.667969 "
            fill-opacity="1" fill-rule="nonzero" />
    </g>
    <g fill="#d7c8b4" fill-opacity="1">
        <g transform="translate(237.313056, 89.473566)">
            <g>
                <path
                    d="M 5.984375 -15.585938 C 5.984375 -23.980469 8.886719 -28.582031 13.621094 -28.582031 C 18.398438 -28.582031 21.257812 -23.980469 21.257812 -15.585938 C 21.257812 -7.234375 18.398438 -2.589844 13.621094 -2.589844 C 8.886719 -2.589844 5.984375 -7.234375 5.984375 -15.585938 Z M 2.054688 -15.585938 C 2.054688 -4.554688 6.699219 0.535156 13.578125 0.535156 C 20.542969 0.535156 25.144531 -4.554688 25.144531 -15.585938 C 25.144531 -26.660156 20.542969 -31.753906 13.578125 -31.753906 C 6.699219 -31.753906 2.054688 -26.660156 2.054688 -15.585938 Z M 2.054688 -15.585938 " />
            </g>
        </g>
    </g>
    <g fill="#d7c8b4" fill-opacity="1">
        <g transform="translate(264.555511, 89.473566)">
            <g>
                <path
                    d="M 0.984375 0 L 12.191406 0 L 12.191406 -1.742188 L 8.308594 -2.324219 L 8.308594 -11.386719 L 12.371094 -11.386719 C 17.820312 -11.386719 22.242188 -15.808594 22.242188 -21.300781 C 22.242188 -26.796875 18.132812 -31.21875 12.324219 -31.21875 L 0.984375 -31.21875 L 0.984375 -29.429688 L 4.375 -28.894531 L 4.375 -2.324219 L 0.984375 -1.742188 Z M 18.308594 -21.300781 C 18.308594 -17.550781 15.542969 -14.515625 12.101562 -14.515625 L 8.308594 -14.515625 L 8.308594 -28.046875 L 12.148438 -28.046875 C 15.585938 -28.046875 18.308594 -25.007812 18.308594 -21.300781 Z M 18.308594 -21.300781 " />
            </g>
        </g>
    </g>
    <g fill="#d7c8b4" fill-opacity="1">
        <g transform="translate(287.91254, 89.473566)">
            <g>
                <path
                    d="M 6.476562 0 L 18.488281 0 L 18.488281 -1.742188 L 14.46875 -2.324219 L 14.46875 -28.089844 L 21.347656 -28.671875 L 21.882812 -22.105469 L 23.894531 -22.105469 L 23.894531 -31.21875 L 1.117188 -31.21875 L 1.117188 -22.105469 L 3.082031 -22.105469 L 3.660156 -28.671875 L 10.539062 -28.089844 L 10.539062 -2.324219 L 6.476562 -1.742188 Z M 6.476562 0 " />
            </g>
        </g>
    </g>
    <g fill="#d7c8b4" fill-opacity="1">
        <g transform="translate(312.877327, 89.473566)">
            <g>
                <path
                    d="M 0.894531 0 L 21.125 0 L 21.125 -9.15625 L 19.160156 -9.15625 L 18.578125 -3.125 L 8.171875 -2.546875 L 8.171875 -14.425781 L 13.753906 -14.425781 L 14.335938 -10.984375 L 16.121094 -10.984375 L 16.121094 -20.765625 L 14.335938 -20.765625 L 13.753906 -17.285156 L 8.171875 -16.65625 L 8.171875 -28.625 L 18.578125 -28.046875 L 19.160156 -22.0625 L 21.125 -22.0625 L 21.125 -31.21875 L 0.894531 -31.21875 L 0.894531 -29.429688 L 4.242188 -28.941406 L 4.242188 -2.277344 L 0.894531 -1.742188 Z M 0.894531 0 " />
            </g>
        </g>
    </g>
    <g fill="#d7c8b4" fill-opacity="1">
        <g transform="translate(336.413024, 89.473566)">
            <g>
                <path
                    d="M 0.984375 -29.429688 L 4.375 -28.894531 L 4.375 -2.324219 L 0.984375 -1.742188 L 0.984375 0 L 11.878906 0 C 19.070312 0 24.5625 -7.011719 24.5625 -15.632812 C 24.5625 -24.207031 19.070312 -31.21875 11.878906 -31.21875 L 0.984375 -31.21875 Z M 8.308594 -3.125 L 8.308594 -28.046875 L 11.433594 -28.046875 C 16.746094 -28 20.632812 -22.464844 20.632812 -15.632812 C 20.632812 -8.796875 16.792969 -3.125 11.476562 -3.125 Z M 8.308594 -3.125 " />
            </g>
        </g>
    </g>
    <g fill="#d7c8b4" fill-opacity="1">
        <g transform="translate(237.313056, 150.880583)">
            <g>
                <path
                    d="M 0.582031 -1.742188 L 0.582031 0 L 11.253906 0 L 11.253906 -1.742188 L 7.503906 -2.324219 L 9.558594 -9.15625 L 19.070312 -9.15625 L 21.125 -2.324219 L 17.285156 -1.742188 L 17.285156 0 L 27.957031 0 L 27.957031 -1.742188 L 25.097656 -2.324219 L 16.300781 -31.21875 L 12.28125 -31.21875 L 3.484375 -2.324219 Z M 18.132812 -12.28125 L 10.496094 -12.28125 L 13.085938 -21.4375 L 14.292969 -26.972656 L 15.542969 -21.4375 Z M 18.132812 -12.28125 " />
            </g>
        </g>
    </g>
    <g fill="#d7c8b4" fill-opacity="1">
        <g transform="translate(265.850611, 150.880583)">
            <g>
                <path
                    d="M 0.984375 0 L 12.191406 0 L 12.191406 -1.742188 L 8.308594 -2.324219 L 8.308594 -11.386719 L 12.371094 -11.386719 C 17.820312 -11.386719 22.242188 -15.808594 22.242188 -21.300781 C 22.242188 -26.796875 18.132812 -31.21875 12.324219 -31.21875 L 0.984375 -31.21875 L 0.984375 -29.429688 L 4.375 -28.894531 L 4.375 -2.324219 L 0.984375 -1.742188 Z M 18.308594 -21.300781 C 18.308594 -17.550781 15.542969 -14.515625 12.101562 -14.515625 L 8.308594 -14.515625 L 8.308594 -28.046875 L 12.148438 -28.046875 C 15.585938 -28.046875 18.308594 -25.007812 18.308594 -21.300781 Z M 18.308594 -21.300781 " />
            </g>
        </g>
    </g>
    <g fill="#d7c8b4" fill-opacity="1">
        <g transform="translate(289.20764, 150.880583)">
            <g>
                <path
                    d="M 0.984375 0 L 12.191406 0 L 12.191406 -1.742188 L 8.308594 -2.324219 L 8.308594 -11.386719 L 12.371094 -11.386719 C 17.820312 -11.386719 22.242188 -15.808594 22.242188 -21.300781 C 22.242188 -26.796875 18.132812 -31.21875 12.324219 -31.21875 L 0.984375 -31.21875 L 0.984375 -29.429688 L 4.375 -28.894531 L 4.375 -2.324219 L 0.984375 -1.742188 Z M 18.308594 -21.300781 C 18.308594 -17.550781 15.542969 -14.515625 12.101562 -14.515625 L 8.308594 -14.515625 L 8.308594 -28.046875 L 12.148438 -28.046875 C 15.585938 -28.046875 18.308594 -25.007812 18.308594 -21.300781 Z M 18.308594 -21.300781 " />
            </g>
        </g>
    </g>
</svg>