<svg xmlns="http://www.w3.org/2000/svg" xmlns:xlink="http://www.w3.org/1999/xlink" width="500"
    zoomAndPan="magnify" viewBox="0 0 375 374.999991" height="500"
    preserveAspectRatio="xMidYMid meet" version="1.0">
    <defs>
        <clipPath id="2e52e47475">
            <path d="M 0 0 L 374.824219 0 L 374.824219 374.824219 L 0 374.824219 Z M 0 0 "
                clip-rule="nonzero" />
        </clipPath>
        <clipPath id="29a3ebbbf1">
            <path
                d="M 45.324219 225 L 329.601562 225 L 329.601562 271.589844 L 45.324219 271.589844 Z M 45.324219 225 "
                clip-rule="nonzero" />
        </clipPath>
        <clipPath id="d1190fff02">
            <path d="M 83 82.132812 L 292 82.132812 L 292 214 L 83 214 Z M 83 82.132812 "
                clip-rule="nonzero" />
        </clipPath>
        <clipPath id="426de5a0a5">
            <path
                d="M 128.753906 99.703125 L 246.675781 99.703125 L 246.675781 194.460938 L 128.753906 194.460938 Z M 128.753906 99.703125 "
                clip-rule="nonzero" />
        </clipPath>
    </defs>
    <g clip-path="url(#2e52e47475)">
        <path fill="#ceaf8c"
            d="M 187.414062 374.824219 C 83.871094 374.824219 0 290.375 0 187.414062 C 0 84.453125 83.871094 0 187.414062 0 C 290.953125 0 374.824219 83.871094 374.824219 187.414062 C 374.824219 290.953125 290.375 374.824219 187.414062 374.824219 Z M 187.414062 11.570312 C 90.234375 11.570312 11.570312 90.234375 11.570312 187.414062 C 11.570312 284.589844 90.234375 363.257812 187.414062 363.257812 C 284.589844 363.257812 363.257812 284.589844 363.257812 187.414062 C 363.257812 90.234375 284.011719 11.570312 187.414062 11.570312 Z M 187.414062 11.570312 "
            fill-opacity="1" fill-rule="nonzero" />
    </g>
    <g clip-path="url(#29a3ebbbf1)">
        <path fill="#d7c8b4"
            d="M 228.476562 259.664062 L 146.449219 259.664062 C 145.886719 259.664062 145.523438 259.070312 145.785156 258.570312 L 152.097656 246.429688 C 152.226562 246.179688 152.484375 246.023438 152.765625 246.023438 L 222.164062 246.023438 C 222.445312 246.023438 222.703125 246.179688 222.828125 246.429688 L 229.144531 258.570312 C 229.402344 259.070312 229.042969 259.664062 228.476562 259.664062 Z M 327.789062 261.042969 L 293.820312 227.113281 C 292.664062 225.953125 291.089844 225.304688 289.449219 225.304688 L 85.480469 225.304688 C 83.839844 225.304688 82.265625 225.953125 81.105469 227.113281 L 47.136719 261.042969 C 45.976562 262.203125 45.324219 263.773438 45.324219 265.410156 C 45.324219 268.824219 48.09375 271.589844 51.511719 271.589844 L 323.417969 271.589844 C 326.832031 271.589844 329.601562 268.824219 329.601562 265.410156 C 329.601562 263.773438 328.953125 262.203125 327.789062 261.042969 "
            fill-opacity="1" fill-rule="nonzero" />
    </g>
    <g clip-path="url(#d1190fff02)">
        <path fill="#d7c8b4"
            d="M 281.84375 82.191406 L 93.082031 82.191406 C 87.621094 82.191406 83.152344 86.65625 83.152344 92.113281 L 83.152344 204.050781 C 83.152344 209.503906 87.621094 213.96875 93.082031 213.96875 L 281.84375 213.96875 C 287.304688 213.96875 291.773438 209.503906 291.773438 204.050781 L 291.773438 92.113281 C 291.773438 86.65625 287.304688 82.191406 281.84375 82.191406 Z M 280.28125 93.671875 L 280.28125 202.488281 L 94.648438 202.488281 L 94.648438 93.671875 L 280.28125 93.671875 "
            fill-opacity="1" fill-rule="nonzero" />
    </g>
    <g clip-path="url(#426de5a0a5)">
        <path fill="#af7f08"
            d="M 140.246094 111.246094 C 140.246094 108.335938 140.308594 105.617188 140.214844 102.894531 C 140.183594 100.734375 141.101562 99.703125 143.25 100.015625 C 151.824219 101.203125 160.554688 101.832031 168.90625 103.863281 C 177.070312 105.867188 183.585938 110.933594 187.605469 118.910156 C 194.914062 105.867188 207.28125 102.363281 220.601562 100.703125 C 224.429688 100.234375 228.320312 100.265625 232.179688 100.015625 C 234.394531 99.859375 235.214844 100.828125 235.121094 102.988281 C 234.996094 105.710938 235.089844 108.429688 235.089844 111.308594 C 238.222656 111.777344 241.070312 112.277344 243.917969 112.59375 C 245.8125 112.8125 246.667969 113.59375 246.636719 115.5625 C 246.605469 137.304688 246.605469 159.050781 246.636719 180.824219 C 246.636719 183.480469 245.371094 183.636719 243.1875 183.324219 C 231.515625 181.511719 219.875 181.324219 208.324219 184.484375 C 201.492188 186.359375 195.230469 189.207031 189.628906 193.617188 C 188.839844 194.242188 186.78125 194.460938 186.085938 193.929688 C 173.75 184.203125 159.355469 181.699219 144.167969 182.199219 C 140.085938 182.324219 135.976562 182.824219 131.925781 183.417969 C 129.679688 183.761719 128.761719 183.136719 128.792969 180.917969 C 128.824219 159.175781 128.824219 137.429688 128.792969 115.65625 C 128.792969 113.71875 129.519531 112.875 131.484375 112.65625 C 134.296875 112.246094 137.113281 111.746094 140.246094 111.246094 Z M 143.1875 168.433594 C 159.226562 169.152344 174.886719 170.375 186.371094 184.578125 C 186.371094 182.636719 186.371094 181.511719 186.371094 180.382812 C 186.371094 162.960938 186.277344 145.535156 186.433594 128.109375 C 186.496094 121.632812 184.0625 116.410156 179.125 112.46875 C 168.65625 103.988281 156.128906 103.050781 143.1875 102.769531 C 143.1875 124.824219 143.1875 146.378906 143.1875 168.433594 Z M 231.988281 168.433594 C 231.988281 146.316406 231.988281 124.636719 231.988281 102.957031 C 220.539062 102.238281 207.3125 105.050781 199.625 109.902344 C 192.761719 114.25 188.871094 120.070312 188.996094 128.578125 C 189.25 145.660156 189.058594 162.773438 189.058594 179.851562 C 189.058594 181.199219 189.058594 182.511719 189.058594 184.515625 C 200.574219 170.34375 216.171875 169.183594 231.988281 168.433594 Z M 235.058594 114.125 C 235.058594 115.972656 235.058594 117.253906 235.058594 118.535156 C 235.058594 134.773438 234.964844 151.039062 235.121094 167.277344 C 235.152344 170.46875 234.140625 171.34375 231.007812 171.34375 C 226.328125 171.375 221.582031 171.6875 216.929688 172.375 C 208.578125 173.628906 200.636719 176.097656 194.597656 182.386719 C 192.792969 184.234375 191.527344 186.578125 190.007812 188.707031 C 206.902344 178.570312 224.902344 178.007812 243.566406 180.382812 C 243.566406 158.546875 243.566406 136.992188 243.566406 115.21875 C 240.816406 114.875 238.191406 114.53125 235.058594 114.125 Z M 185.167969 188.707031 C 184.03125 186.984375 183.238281 184.828125 181.6875 183.574219 C 178.175781 180.730469 174.570312 177.820312 170.519531 175.878906 C 162.675781 172.125 154.039062 171.53125 145.433594 171.3125 C 140.277344 171.1875 140.246094 171.15625 140.246094 165.867188 C 140.246094 149.976562 140.246094 134.085938 140.246094 118.191406 C 140.246094 116.910156 140.246094 115.65625 140.246094 114.28125 C 138.886719 114.34375 138.03125 114.34375 137.175781 114.46875 C 131.484375 115.1875 131.484375 115.1875 131.484375 120.789062 C 131.484375 139.308594 131.484375 157.828125 131.484375 176.347656 C 131.484375 177.601562 131.484375 178.851562 131.484375 180.445312 C 150.464844 178.007812 168.433594 178.601562 185.167969 188.707031 Z M 185.167969 188.707031 "
            fill-opacity="1" fill-rule="nonzero" />
    </g>
</svg>