<svg xmlns="http://www.w3.org/2000/svg" xmlns:xlink="http://www.w3.org/1999/xlink" width="500" zoomAndPan="magnify" viewBox="0 0 375 374.999991" height="500" preserveAspectRatio="xMidYMid meet" version="1.0"><defs><clipPath id="c490965916"><path d="M 45.324219 235.375 L 329.65625 235.375 L 329.65625 282.28125 L 45.324219 282.28125 Z M 45.324219 235.375 " clip-rule="nonzero"/></clipPath><clipPath id="2d16150b4f"><path d="M 83 92.597656 L 292 92.597656 L 292 225 L 83 225 Z M 83 92.597656 " clip-rule="nonzero"/></clipPath><clipPath id="c0508b3fcf"><path d="M 128.753906 110.167969 L 246.246094 110.167969 L 246.246094 205.925781 L 128.753906 205.925781 Z M 128.753906 110.167969 " clip-rule="nonzero"/></clipPath></defs><rect x="-37.5" width="450" fill="none" y="-37.499999" height="449.999989" fill-opacity="1"/><rect x="-37.5" width="450" fill="none" y="-37.499999" height="449.999989" fill-opacity="1"/><rect x="-37.5" width="450" fill="none" y="-37.499999" height="449.999989" fill-opacity="1"/><path fill="#ceaf8c" d="M 187.5 375 C 83.910156 375 0 290.507812 0 187.5 C 0 84.492188 83.910156 0 187.5 0 C 291.089844 0 375 83.910156 375 187.5 C 375 291.089844 290.507812 375 187.5 375 Z M 187.5 11.574219 C 90.277344 11.574219 11.574219 90.277344 11.574219 187.5 C 11.574219 284.722656 90.277344 363.425781 187.5 363.425781 C 284.722656 363.425781 363.425781 284.722656 363.425781 187.5 C 363.425781 90.277344 284.144531 11.574219 187.5 11.574219 Z M 187.5 11.574219 " fill-opacity="1" fill-rule="nonzero"/><g clip-path="url(#c490965916)"><path fill="#d7c8b4" d="M 228.511719 270.339844 L 146.46875 270.339844 C 145.90625 270.339844 145.542969 269.746094 145.800781 269.246094 L 152.117188 257.089844 C 152.246094 256.84375 152.503906 256.6875 152.785156 256.6875 L 222.195312 256.6875 C 222.476562 256.6875 222.734375 256.84375 222.863281 257.089844 L 229.179688 269.246094 C 229.4375 269.746094 229.074219 270.339844 228.511719 270.339844 Z M 327.84375 271.71875 L 293.867188 237.753906 C 292.707031 236.589844 291.136719 235.941406 289.492188 235.941406 L 85.488281 235.941406 C 83.84375 235.941406 82.273438 236.589844 81.109375 237.753906 L 47.136719 271.71875 C 45.976562 272.882812 45.324219 274.453125 45.324219 276.09375 C 45.324219 279.511719 48.09375 282.28125 51.511719 282.28125 L 323.46875 282.28125 C 326.886719 282.28125 329.65625 279.511719 329.65625 276.09375 C 329.65625 274.453125 329.003906 272.882812 327.84375 271.71875 " fill-opacity="1" fill-rule="nonzero"/></g><g clip-path="url(#2d16150b4f)"><path fill="#d7c8b4" d="M 281.886719 92.664062 L 93.09375 92.664062 C 87.628906 92.664062 83.160156 97.132812 83.160156 102.59375 L 83.160156 214.660156 C 83.160156 220.121094 87.628906 224.589844 93.09375 224.589844 L 281.886719 224.589844 C 287.351562 224.589844 291.820312 220.121094 291.820312 214.660156 L 291.820312 102.59375 C 291.820312 97.132812 287.351562 92.664062 281.886719 92.664062 Z M 280.324219 104.15625 L 280.324219 213.097656 L 94.65625 213.097656 L 94.65625 104.15625 L 280.324219 104.15625 " fill-opacity="1" fill-rule="nonzero"/></g><g clip-path="url(#c0508b3fcf)"><path fill="#af7f08" d="M 140.210938 121.832031 C 140.210938 118.894531 140.273438 116.144531 140.179688 113.394531 C 140.148438 111.210938 141.0625 110.167969 143.203125 110.484375 C 151.746094 111.6875 160.445312 112.316406 168.765625 114.371094 C 176.894531 116.394531 183.386719 121.515625 187.390625 129.578125 C 194.667969 116.394531 206.992188 112.855469 220.261719 111.179688 C 224.074219 110.707031 227.949219 110.738281 231.796875 110.484375 C 234.003906 110.328125 234.820312 111.304688 234.726562 113.488281 C 234.601562 116.238281 234.695312 118.988281 234.695312 121.898438 C 237.816406 122.371094 240.652344 122.875 243.488281 123.191406 C 245.378906 123.414062 246.230469 124.203125 246.199219 126.195312 C 246.167969 148.167969 246.167969 170.136719 246.199219 192.140625 C 246.199219 194.828125 244.9375 194.984375 242.761719 194.667969 C 231.132812 192.835938 219.535156 192.648438 208.03125 195.839844 C 201.226562 197.738281 194.984375 200.613281 189.40625 205.070312 C 188.617188 205.703125 186.570312 205.925781 185.875 205.386719 C 173.585938 195.554688 159.246094 193.027344 144.117188 193.53125 C 140.050781 193.660156 135.957031 194.164062 131.921875 194.765625 C 129.683594 195.113281 128.769531 194.480469 128.800781 192.234375 C 128.832031 170.265625 128.832031 148.292969 128.800781 126.289062 C 128.800781 124.332031 129.527344 123.476562 131.480469 123.257812 C 134.285156 122.84375 137.089844 122.339844 140.210938 121.832031 Z M 143.140625 179.621094 C 159.121094 180.347656 174.71875 181.582031 186.160156 195.933594 C 186.160156 193.972656 186.160156 192.835938 186.160156 191.699219 C 186.160156 174.089844 186.066406 156.480469 186.222656 138.871094 C 186.285156 132.328125 183.859375 127.050781 178.945312 123.066406 C 168.511719 114.5 156.03125 113.550781 143.140625 113.265625 C 143.140625 135.554688 143.140625 157.335938 143.140625 179.621094 Z M 231.605469 179.621094 C 231.605469 157.273438 231.605469 135.363281 231.605469 113.457031 C 220.199219 112.730469 207.023438 115.574219 199.367188 120.472656 C 192.527344 124.867188 188.648438 130.75 188.777344 139.347656 C 189.027344 156.609375 188.839844 173.898438 188.839844 191.160156 C 188.839844 192.519531 188.839844 193.847656 188.839844 195.871094 C 200.3125 181.550781 215.847656 180.378906 231.605469 179.621094 Z M 234.664062 124.742188 C 234.664062 126.605469 234.664062 127.902344 234.664062 129.199219 C 234.664062 145.605469 234.570312 162.046875 234.726562 178.453125 C 234.757812 181.675781 233.75 182.5625 230.628906 182.5625 C 225.964844 182.59375 221.238281 182.910156 216.605469 183.605469 C 208.285156 184.871094 200.375 187.367188 194.355469 193.722656 C 192.558594 195.585938 191.296875 197.957031 189.785156 200.105469 C 206.613281 189.863281 224.546875 189.296875 243.140625 191.699219 C 243.140625 169.632812 243.140625 147.851562 243.140625 125.847656 C 240.398438 125.5 237.785156 125.152344 234.664062 124.742188 Z M 184.964844 200.105469 C 183.828125 198.367188 183.039062 196.1875 181.496094 194.921875 C 177.996094 192.046875 174.40625 189.105469 170.371094 187.144531 C 162.554688 183.351562 153.949219 182.75 145.378906 182.53125 C 140.242188 182.402344 140.210938 182.371094 140.210938 177.03125 C 140.210938 160.96875 140.210938 144.910156 140.210938 128.851562 C 140.210938 127.554688 140.210938 126.289062 140.210938 124.898438 C 138.855469 124.964844 138.003906 124.964844 137.152344 125.089844 C 131.480469 125.816406 131.480469 125.816406 131.480469 131.476562 C 131.480469 150.191406 131.480469 168.90625 131.480469 187.621094 C 131.480469 188.882812 131.480469 190.148438 131.480469 191.761719 C 150.390625 189.296875 168.289062 189.894531 184.964844 200.105469 Z M 184.964844 200.105469 " fill-opacity="1" fill-rule="nonzero"/></g></svg>